<svg width="28" height="28" viewBox="0 0 28 28" fill="none" xmlns="http://www.w3.org/2000/svg">
<path d="M11.5359 11.746C10.7379 11.746 10.1079 12.446 10.1079 13.3C10.1079 14.154 10.7519 14.854 11.5359 14.854C12.3339 14.854 12.9639 14.154 12.9639 13.3C12.9779 12.446 12.3339 11.746 11.5359 11.746ZM16.6459 11.746C15.8479 11.746 15.2179 12.446 15.2179 13.3C15.2179 14.154 15.8619 14.854 16.6459 14.854C17.4439 14.854 18.0739 14.154 18.0739 13.3C18.0739 12.446 17.4439 11.746 16.6459 11.746Z" fill="#F86D1A"/>
<path d="M23.4499 0H4.68995C3.10795 0 1.81995 1.288 1.81995 2.884V21.812C1.81995 23.408 3.10795 24.696 4.68995 24.696H20.5659L19.8239 22.106L21.6159 23.772L23.3099 25.34L26.3199 28V2.884C26.3199 1.288 25.0319 0 23.4499 0ZM18.0459 18.284C18.0459 18.284 17.5419 17.682 17.1219 17.15C18.9559 16.632 19.6559 15.484 19.6559 15.484C19.0819 15.862 18.5359 16.128 18.0459 16.31C17.3459 16.604 16.6739 16.8 16.0159 16.912C14.6719 17.164 13.4399 17.094 12.3899 16.898C11.5919 16.744 10.9059 16.52 10.3319 16.296C10.0099 16.17 9.65995 16.016 9.30995 15.82C9.26795 15.792 9.22595 15.778 9.18395 15.75C9.15595 15.736 9.14195 15.722 9.12795 15.708C8.87595 15.568 8.73595 15.47 8.73595 15.47C8.73595 15.47 9.40795 16.59 11.1859 17.122C10.7659 17.654 10.2479 18.284 10.2479 18.284C7.15395 18.186 5.97795 16.156 5.97795 16.156C5.97795 11.648 7.99395 7.994 7.99395 7.994C10.0099 6.482 11.9279 6.524 11.9279 6.524L12.0679 6.692C9.54795 7.42 8.38595 8.526 8.38595 8.526C8.38595 8.526 8.69395 8.358 9.21195 8.12C10.7099 7.462 11.8999 7.28 12.3899 7.238C12.4739 7.224 12.5439 7.21 12.6279 7.21C13.4819 7.098 14.4479 7.07 15.4559 7.182C16.7859 7.336 18.2139 7.728 19.6699 8.526C19.6699 8.526 18.5639 7.476 16.1839 6.748L16.3799 6.524C16.3799 6.524 18.2979 6.482 20.3139 7.994C20.3139 7.994 22.3299 11.648 22.3299 16.156C22.3299 16.156 21.1399 18.186 18.0459 18.284Z" fill="#F86D1A"/>
</svg>
