<svg width="30" height="29" viewBox="0 0 30 29" fill="none" xmlns="http://www.w3.org/2000/svg">
<path d="M12.7998 11.9447C11.9829 11.9447 11.3379 12.6366 11.3379 13.4808C11.3379 14.3249 11.9972 15.0169 12.7998 15.0169C13.6168 15.0169 14.2618 14.3249 14.2618 13.4808C14.2761 12.6366 13.6168 11.9447 12.7998 11.9447ZM18.0313 11.9447C17.2143 11.9447 16.5693 12.6366 16.5693 13.4808C16.5693 14.3249 17.2287 15.0169 18.0313 15.0169C18.8483 15.0169 19.4932 14.3249 19.4932 13.4808C19.4932 12.6366 18.8483 11.9447 18.0313 11.9447Z" fill="white"/>
<path d="M24.9976 0.334167H5.79173C4.17213 0.334167 2.85352 1.60731 2.85352 3.1849V21.8946C2.85352 23.4722 4.17213 24.7453 5.79173 24.7453H22.0451L21.2854 22.1852L23.12 23.832L24.8543 25.3819L27.9358 28.0112V3.1849C27.9358 1.60731 26.6172 0.334167 24.9976 0.334167ZM19.4652 18.4073C19.4652 18.4073 18.9492 17.8122 18.5192 17.2864C20.3968 16.7743 21.1135 15.6396 21.1135 15.6396C20.5258 16.0132 19.9668 16.2762 19.4652 16.4561C18.7485 16.7467 18.0606 16.9404 17.3869 17.0511C16.011 17.3002 14.7497 17.231 13.6747 17.0373C12.8578 16.885 12.1555 16.6636 11.5678 16.4422C11.2382 16.3177 10.8799 16.1654 10.5215 15.9717C10.4785 15.944 10.4355 15.9302 10.3925 15.9025C10.3639 15.8887 10.3495 15.8748 10.3352 15.861C10.0772 15.7226 9.9339 15.6257 9.9339 15.6257C9.9339 15.6257 10.6219 16.7328 12.4421 17.2587C12.0121 17.7845 11.4818 18.4073 11.4818 18.4073C8.3143 18.3104 7.11035 16.3038 7.11035 16.3038C7.11035 11.8478 9.17426 8.23597 9.17426 8.23597C11.2382 6.74141 13.2018 6.78292 13.2018 6.78292L13.3451 6.94898C10.7652 7.66859 9.57558 8.76183 9.57558 8.76183C9.57558 8.76183 9.8909 8.59577 10.4212 8.36051C11.9548 7.7101 13.1731 7.5302 13.6747 7.48869C13.7607 7.47485 13.8324 7.46101 13.9184 7.46101C14.7927 7.3503 15.7817 7.32262 16.8136 7.43333C18.1752 7.58556 19.6372 7.97303 21.1278 8.76183C21.1278 8.76183 19.9955 7.72394 17.5589 7.00434L17.7596 6.78292C17.7596 6.78292 19.7232 6.74141 21.7871 8.23597C21.7871 8.23597 23.851 11.8478 23.851 16.3038C23.851 16.3038 22.6327 18.3104 19.4652 18.4073Z" fill="white"/>
</svg>
