<svg width="22" height="17" viewBox="0 0 22 17" fill="none" xmlns="http://www.w3.org/2000/svg">
<path d="M0 1.539C0 0.77961 0.615608 0.164001 1.375 0.164001H20.625C21.3844 0.164001 22 0.77961 22 1.539C22 2.29839 21.3844 2.914 20.625 2.914H1.375C0.615608 2.914 0 2.29839 0 1.539ZM0 8.414C0 7.65461 0.615608 7.039 1.375 7.039H20.625C21.3844 7.039 22 7.65461 22 8.414C22 9.17339 21.3844 9.789 20.625 9.789H1.375C0.615608 9.789 0 9.17339 0 8.414ZM0 15.289C0 14.5296 0.615608 13.914 1.375 13.914H20.625C21.3844 13.914 22 14.5296 22 15.289C22 16.0484 21.3844 16.664 20.625 16.664H1.375C0.615608 16.664 0 16.0484 0 15.289Z" fill="white"/>
</svg>
