<svg width="32" height="26" viewBox="0 0 32 26" fill="none" xmlns="http://www.w3.org/2000/svg">
<path d="M23.4196 1.0068H7.81547C6.7745 0.943973 5.73206 1.10274 4.75699 1.47261C3.78193 1.84248 2.89645 2.41503 2.15903 3.15244C1.42162 3.88985 0.849071 4.77534 0.479202 5.7504C0.109333 6.72547 -0.0494348 7.76791 0.0133882 8.80888V18.1714C-0.0494348 19.2123 0.109333 20.2548 0.479202 21.2298C0.849071 22.2049 1.42162 23.0904 2.15903 23.8278C2.89645 24.5652 3.78193 25.1378 4.75699 25.5076C5.73206 25.8775 6.7745 26.0363 7.81547 25.9734H23.4196C24.4606 26.0363 25.503 25.8775 26.4781 25.5076C27.4532 25.1378 28.3386 24.5652 29.0761 23.8278C29.8135 23.0904 30.386 22.2049 30.7559 21.2298C31.1258 20.2548 31.2845 19.2123 31.2217 18.1714V8.80888C31.2845 7.76791 31.1258 6.72547 30.7559 5.7504C30.386 4.77534 29.8135 3.88985 29.0761 3.15244C28.3386 2.41503 27.4532 1.84248 26.4781 1.47261C25.503 1.10274 24.4606 0.943973 23.4196 1.0068ZM18.5667 15.0974L14.7125 17.4068C13.1521 18.343 11.8725 17.6252 11.8725 15.7995V11.1651C11.8725 9.33942 13.1521 8.62163 14.7125 9.55787L18.5667 11.8673C18.8938 11.9923 19.1752 12.2136 19.3737 12.502C19.5722 12.7904 19.6785 13.1322 19.6785 13.4823C19.6785 13.8324 19.5722 14.1743 19.3737 14.4627C19.1752 14.7511 18.8938 14.9724 18.5667 15.0974Z" fill="#F86D1A"/>
</svg>
