<svg width="25" height="26" viewBox="0 0 25 26" fill="none" xmlns="http://www.w3.org/2000/svg">
<path d="M23.4942 0.786502H3.3153C3.10032 0.787558 2.88894 0.839018 2.69994 0.936311C2.51095 1.0336 2.35019 1.17372 2.23195 1.3442L0.22189 4.19465C0.0785221 4.39601 0.0012999 4.63323 0 4.87628L0 20.6157C0 20.9444 0.137516 21.2596 0.382295 21.4921C0.627074 21.7245 0.959066 21.855 1.30524 21.855H3.91571C4.26188 21.855 4.59387 21.9856 4.83865 22.218C5.08343 22.4505 5.22094 22.7657 5.22094 23.0944V24.3337C5.22094 24.6624 5.35846 24.9776 5.60324 25.21C5.84802 25.4425 6.18001 25.573 6.52618 25.573H8.43182C8.64681 25.572 8.85818 25.5205 9.04718 25.4232C9.23617 25.3259 9.39693 25.1858 9.51517 25.0153L11.3556 22.4003C11.4745 22.2305 11.6354 22.0908 11.8242 21.9936C12.0131 21.8964 12.2241 21.8446 12.4389 21.8427H17.7251C18.0711 21.8402 18.4029 21.7115 18.6518 21.4832L24.4079 16.0178C24.5295 15.9024 24.6256 15.7652 24.6906 15.6141C24.7556 15.463 24.7881 15.3011 24.7864 15.1379V2.02583C24.7885 1.86357 24.7566 1.70255 24.6926 1.55211C24.6285 1.40166 24.5336 1.26481 24.4134 1.1495C24.2932 1.03418 24.15 0.942708 23.9922 0.880392C23.8344 0.818076 23.6651 0.786161 23.4942 0.786502ZM10.8204 14.2456C10.8204 14.4329 10.742 14.6126 10.6025 14.7451C10.463 14.8776 10.2737 14.952 10.0764 14.952H8.58845C8.39114 14.952 8.2019 14.8776 8.06238 14.7451C7.92285 14.6126 7.84447 14.4329 7.84447 14.2456V7.16903C7.84447 6.98168 7.92285 6.802 8.06238 6.66952C8.2019 6.53704 8.39114 6.46262 8.58845 6.46262H10.0764C10.2737 6.46262 10.463 6.53704 10.6025 6.66952C10.742 6.802 10.8204 6.98168 10.8204 7.16903V14.2456ZM18.2733 14.2456C18.2733 14.4329 18.1949 14.6126 18.0554 14.7451C17.9159 14.8776 17.7266 14.952 17.5293 14.952H16.0413C15.844 14.952 15.6548 14.8776 15.5153 14.7451C15.3757 14.6126 15.2974 14.4329 15.2974 14.2456V7.16903C15.2974 6.98168 15.3757 6.802 15.5153 6.66952C15.6548 6.53704 15.844 6.46262 16.0413 6.46262H17.5293C17.7266 6.46262 17.9159 6.53704 18.0554 6.66952C18.1949 6.802 18.2733 6.98168 18.2733 7.16903V14.2456Z" fill="#F86D1A"/>
</svg>
