<svg width="32" height="26" viewBox="0 0 32 26" fill="none" xmlns="http://www.w3.org/2000/svg">
<path d="M23.8385 0.833333H8.41429C7.38533 0.771234 6.35491 0.928171 5.39109 1.29377C4.42728 1.65938 3.552 2.22533 2.8231 2.95423C2.09419 3.68314 1.52824 4.55841 1.16264 5.52223C0.797036 6.48605 0.6401 7.51647 0.702199 8.54542V17.7999C0.6401 18.8289 0.797036 19.8593 1.16264 20.8231C1.52824 21.7869 2.09419 22.6622 2.8231 23.3911C3.552 24.12 4.42728 24.686 5.39109 25.0516C6.35491 25.4172 7.38533 25.5741 8.41429 25.512H23.8385C24.8674 25.5741 25.8979 25.4172 26.8617 25.0516C27.8255 24.686 28.7008 24.12 29.4297 23.3911C30.1586 22.6622 30.7245 21.7869 31.0901 20.8231C31.4557 19.8593 31.6127 18.8289 31.5506 17.7999V8.54542C31.6127 7.51647 31.4557 6.48605 31.0901 5.52223C30.7245 4.55841 30.1586 3.68314 29.4297 2.95423C28.7008 2.22533 27.8255 1.65938 26.8617 1.29377C25.8979 0.928171 24.8674 0.771234 23.8385 0.833333ZM19.0416 14.7614L15.2318 17.0442C13.6894 17.9696 12.4246 17.2601 12.4246 15.4555V10.8745C12.4246 9.06985 13.6894 8.36033 15.2318 9.28579L19.0416 11.5686C19.3648 11.6921 19.643 11.9109 19.8392 12.1959C20.0354 12.481 20.1405 12.8189 20.1405 13.165C20.1405 13.511 20.0354 13.849 19.8392 14.134C19.643 14.4191 19.3648 14.6378 19.0416 14.7614Z" fill="white"/>
</svg>
