<svg width="28" height="29" viewBox="0 0 28 29" fill="none" xmlns="http://www.w3.org/2000/svg">
<g clip-path="url(#clip0_263_86)">
<path d="M8.77137 25.4165C19.213 25.4165 24.9257 16.7637 24.9257 9.26222C24.9257 9.01896 24.9203 8.7703 24.9095 8.52705C26.0208 7.72337 26.9798 6.72791 27.7415 5.58744C26.7065 6.04792 25.6077 6.34866 24.4824 6.47938C25.6672 5.7692 26.5543 4.65354 26.9793 3.33922C25.8647 3.99977 24.6458 4.46573 23.3748 4.71713C22.5184 3.80719 21.3861 3.2047 20.153 3.00281C18.9199 2.80092 17.6546 3.01088 16.5528 3.60023C15.4509 4.18957 14.5739 5.12547 14.0573 6.26324C13.5408 7.401 13.4134 8.67726 13.6949 9.89468C11.438 9.78143 9.2301 9.19515 7.21434 8.17386C5.19858 7.15257 3.41994 5.71907 1.99374 3.96628C1.26887 5.21604 1.04705 6.69492 1.37338 8.10235C1.69971 9.50978 2.54969 10.7402 3.75058 11.5434C2.84903 11.5148 1.96722 11.2721 1.17802 10.8353V10.9055C1.17721 12.2171 1.63063 13.4884 2.46118 14.5035C3.29174 15.5185 4.44818 16.2146 5.73392 16.4734C4.89878 16.7019 4.02225 16.7352 3.17218 16.5707C3.53499 17.6986 4.24089 18.6851 5.19136 19.3926C6.14184 20.1 7.28946 20.493 8.47406 20.5168C6.46295 22.0966 3.97865 22.9534 1.42128 22.9494C0.967748 22.9487 0.514665 22.9209 0.0644531 22.8661C2.66247 24.5329 5.68466 25.4181 8.77137 25.4165Z" fill="white"/>
</g>
<defs>
<clipPath id="clip0_263_86">
<rect width="27.6771" height="27.6771" fill="white" transform="translate(0.0644531 0.334167)"/>
</clipPath>
</defs>
</svg>
