<svg width="26" height="26" viewBox="0 0 26 26" fill="none" xmlns="http://www.w3.org/2000/svg">
<path d="M23.7867 0.922366H3.84054C3.62804 0.92341 3.4191 0.974277 3.23228 1.07045C3.04547 1.16662 2.88656 1.30511 2.76969 1.47363L0.782807 4.2912C0.641093 4.49024 0.564761 4.72472 0.563477 4.96497L0.563477 20.5229C0.563477 20.8478 0.699406 21.1594 0.941362 21.3891C1.18332 21.6188 1.51148 21.7479 1.85366 21.7479H4.43402C4.7762 21.7479 5.10436 21.877 5.34632 22.1067C5.58827 22.3365 5.7242 22.648 5.7242 22.9729V24.198C5.7242 24.5229 5.86013 24.8345 6.10209 25.0642C6.34404 25.2939 6.67221 25.423 7.01438 25.423H8.89805C9.11055 25.422 9.31949 25.3711 9.50631 25.2749C9.69312 25.1788 9.85203 25.0403 9.9689 24.8717L11.7881 22.2869C11.9056 22.119 12.0646 21.981 12.2513 21.8849C12.438 21.7888 12.6466 21.7376 12.8589 21.7357H18.0841C18.4262 21.7332 18.7542 21.606 19.0002 21.3804L24.6899 15.978C24.81 15.8639 24.905 15.7283 24.9693 15.5789C25.0335 15.4296 25.0657 15.2696 25.064 15.1082V2.1474C25.0661 1.98702 25.0345 1.82785 24.9712 1.67914C24.9079 1.53043 24.8141 1.39516 24.6953 1.28117C24.5764 1.16719 24.4349 1.07677 24.2789 1.01517C24.123 0.953576 23.9557 0.922029 23.7867 0.922366ZM11.2591 14.2262C11.2591 14.4114 11.1816 14.589 11.0437 14.72C10.9058 14.8509 10.7187 14.9245 10.5237 14.9245H9.05287C8.85783 14.9245 8.67078 14.8509 8.53286 14.72C8.39495 14.589 8.31747 14.4114 8.31747 14.2262V7.23128C8.31747 7.04609 8.39495 6.86848 8.53286 6.73753C8.67078 6.60658 8.85783 6.53301 9.05287 6.53301H10.5237C10.7187 6.53301 10.9058 6.60658 11.0437 6.73753C11.1816 6.86848 11.2591 7.04609 11.2591 7.23128V14.2262ZM18.626 14.2262C18.626 14.4114 18.5485 14.589 18.4106 14.72C18.2727 14.8509 18.0857 14.9245 17.8906 14.9245H16.4198C16.2248 14.9245 16.0377 14.8509 15.8998 14.72C15.7619 14.589 15.6844 14.4114 15.6844 14.2262V7.23128C15.6844 7.04609 15.7619 6.86848 15.8998 6.73753C16.0377 6.60658 16.2248 6.53301 16.4198 6.53301H17.8906C18.0857 6.53301 18.2727 6.60658 18.4106 6.73753C18.5485 6.86848 18.626 7.04609 18.626 7.23128V14.2262Z" fill="white"/>
</svg>
