<svg width="77" height="76" viewBox="0 0 77 76" fill="none" xmlns="http://www.w3.org/2000/svg">
<path d="M66.4897 19.7608L64.7207 3.41715C64.3669 0.148409 59.6371 -0.746193 57.9426 2.14406L49.8797 15.8212H27.0316L18.9686 2.16126C17.2555 -0.728989 12.5444 0.148409 12.1905 3.41715L10.4215 19.7608C4.35106 23.7005 0.384766 30.2208 0.384766 37.5841V65.764C0.384766 70.9768 4.96556 75.209 10.6078 75.209H66.3035C71.9457 75.209 76.5265 70.9768 76.5265 65.764V37.5841C76.5265 30.2036 72.5602 23.7005 66.4897 19.7608Z" fill="#DA8DE0"/>
<g opacity="0.7">
<path d="M64.5412 24.2999L63.0227 10.3875C62.719 7.60502 58.6589 6.8435 57.2043 9.30379L50.283 20.328H26.6271L19.7058 8.70019C18.2352 6.23989 14.1911 6.98677 13.8874 9.76924L12.3689 23.6816C7.15791 27.0352 4.29492 32.4643 4.29492 38.7322V64.0778C4.29492 68.5151 9.70686 72.1177 14.5502 72.1177H62.3599C67.2032 72.1177 72.483 68.5151 72.483 64.0778V40.0899C72.483 33.8074 69.7522 27.6535 64.5412 24.2999Z" fill="#DA8DE0"/>
<path d="M62.5739 24.5146L62.6764 25.4531L63.4702 25.964C68.0021 28.8805 70.5041 34.3338 70.5041 40.0899V64.0778C70.5041 65.4751 69.661 66.9611 68.0444 68.183C66.441 69.395 64.3245 70.1387 62.3599 70.1387H14.5502C12.5823 70.1387 10.4275 69.3927 8.78666 68.1733C7.12854 66.9412 6.27386 65.4554 6.27386 64.0778V38.7322C6.27386 33.1101 8.8173 28.3206 13.4398 25.3457L14.2337 24.8348L14.3361 23.8963L15.8546 9.98397C15.8904 9.65609 16.1357 9.32199 16.7174 9.2149C17.3005 9.10753 17.7744 9.32723 18.0065 9.71442C18.0067 9.71478 18.0069 9.71514 18.0071 9.7155L24.9266 21.3402L25.502 22.3069H26.6271H50.283H51.3772L51.959 21.3802L58.8803 10.356L58.8943 10.3337L58.9078 10.3109C59.1286 9.93738 59.5914 9.71464 60.1817 9.8249C60.771 9.93498 61.0197 10.2755 61.0554 10.6022L63.0227 10.3875L61.0554 10.6022L62.5739 24.5146Z" stroke="url(#paint0_linear_771_355)" stroke-opacity="0.8" stroke-width="3.95788"/>
</g>
<defs>
<linearGradient id="paint0_linear_771_355" x1="-0.289734" y1="-19.3834" x2="63.8302" y2="92.2356" gradientUnits="userSpaceOnUse">
<stop stop-color="white" stop-opacity="0.81"/>
<stop offset="1" stop-color="white" stop-opacity="0"/>
</linearGradient>
</defs>
</svg>
