<svg width="77" height="76" viewBox="0 0 77 76" fill="none" xmlns="http://www.w3.org/2000/svg">
<path d="M66.9038 19.7608L65.1348 3.41715C64.781 0.148409 60.0512 -0.746193 58.3567 2.14406L50.2937 15.8212H27.4456L19.3827 2.16126C17.6696 -0.728989 12.9584 0.148409 12.6046 3.41715L10.8356 19.7608C4.76513 23.7005 0.798828 30.2208 0.798828 37.5841V65.764C0.798828 70.9768 5.37962 75.209 11.0218 75.209H66.7176C72.3598 75.209 76.9406 70.9768 76.9406 65.764V37.5841C76.9406 30.2036 72.9743 23.7005 66.9038 19.7608Z" fill="#FF9737"/>
<g opacity="0.7">
<path d="M64.9553 24.2999L63.4367 10.3875C63.133 7.60502 59.073 6.8435 57.6184 9.30379L50.6971 20.328H27.0411L20.1198 8.70019C18.6492 6.23989 14.6052 6.98677 14.3015 9.76924L12.7829 23.6816C7.57197 27.0352 4.70898 32.4643 4.70898 38.7322V64.0778C4.70898 68.5151 10.1209 72.1177 14.9642 72.1177H62.774C67.6173 72.1177 72.8971 68.5151 72.8971 64.0778V40.0899C72.8971 33.8074 70.1662 27.6535 64.9553 24.2999Z" fill="#FF9737"/>
<path d="M62.988 24.5146L63.0904 25.4531L63.8843 25.964C68.4161 28.8805 70.9182 34.3338 70.9182 40.0899V64.0778C70.9182 65.4751 70.0751 66.9611 68.4585 68.183C66.8551 69.395 64.7386 70.1387 62.774 70.1387H14.9642C12.9964 70.1387 10.8415 69.3927 9.20072 68.1733C7.5426 66.9412 6.68792 65.4554 6.68792 64.0778V38.7322C6.68792 33.1101 9.23136 28.3206 13.8539 25.3457L14.6477 24.8348L14.7502 23.8963L16.2687 9.98397C16.3045 9.65609 16.5498 9.32199 17.1314 9.2149C17.7146 9.10753 18.1885 9.32723 18.4205 9.71442C18.4208 9.71478 18.421 9.71514 18.4212 9.7155L25.3406 21.3402L25.9161 22.3069H27.0411H50.6971H51.7913L52.3731 21.3802L59.2944 10.356L59.3084 10.3337L59.3219 10.3109C59.5427 9.93738 60.0055 9.71464 60.5958 9.8249C61.1851 9.93498 61.4338 10.2755 61.4695 10.6022L63.4367 10.3875L61.4695 10.6022L62.988 24.5146Z" stroke="url(#paint0_linear_771_377)" stroke-opacity="0.8" stroke-width="3.95788"/>
</g>
<defs>
<linearGradient id="paint0_linear_771_377" x1="0.124329" y1="-19.3834" x2="64.2443" y2="92.2356" gradientUnits="userSpaceOnUse">
<stop stop-color="white" stop-opacity="0.81"/>
<stop offset="1" stop-color="white" stop-opacity="0"/>
</linearGradient>
</defs>
</svg>
