<svg width="77" height="76" viewBox="0 0 77 76" fill="none" xmlns="http://www.w3.org/2000/svg">
<path d="M66.2612 19.7608L64.4922 3.41715C64.1384 0.148409 59.4087 -0.746193 57.7142 2.14406L49.6512 15.8212H26.8031L18.7401 2.16126C17.027 -0.728989 12.3158 0.148409 11.962 3.41715L10.193 19.7608C4.12255 23.7005 0.15625 30.2208 0.15625 37.5841V65.764C0.15625 70.9768 4.73705 75.209 10.3792 75.209H66.075C71.7172 75.209 76.298 70.9768 76.298 65.764V37.5841C76.298 30.2036 72.3317 23.7005 66.2612 19.7608Z" fill="#77CFCF"/>
<g opacity="0.7">
<path d="M64.3126 24.3002L62.7941 10.388C62.4904 7.6055 58.4303 6.84399 56.9757 9.30427L50.0544 20.3284H26.3985L19.4772 8.70066C18.0067 6.24039 13.9626 6.98726 13.6589 9.76971L12.1403 23.682C6.92939 27.0356 4.06641 32.4646 4.06641 38.7325V64.0779C4.06641 68.5151 9.47834 72.1177 14.3216 72.1177H62.1313C66.9746 72.1177 72.2544 68.5151 72.2544 64.0779V40.0902C72.2544 33.8077 69.5236 27.6538 64.3126 24.3002Z" fill="#77CFCF"/>
<path d="M62.3453 24.515L62.4478 25.4534L63.2416 25.9643C67.7735 28.8809 70.2755 34.334 70.2755 40.0902V64.0779C70.2755 65.4751 69.4324 66.9611 67.8158 68.183C66.2124 69.395 64.0959 70.1387 62.1313 70.1387H14.3216C12.3538 70.1387 10.199 69.3927 8.55813 68.1734C6.90001 66.9412 6.04535 65.4554 6.04535 64.0779V38.7325C6.04535 33.1105 8.58878 28.321 13.2113 25.3461L14.0052 24.8352L14.1076 23.8967L15.6261 9.98444C15.6619 9.65658 15.9072 9.32248 16.4888 9.21539C17.0719 9.10802 17.5459 9.32771 17.7779 9.71487C17.7782 9.71524 17.7784 9.71561 17.7786 9.71598L24.698 21.3406L25.2735 22.3073H26.3985H50.0544H51.1486L51.7304 21.3806L58.6517 10.3565L58.6658 10.3341L58.6792 10.3114C58.9001 9.93787 59.3629 9.71513 59.9531 9.82538C60.5425 9.93547 60.7912 10.2759 60.8268 10.6027L62.3453 24.515Z" stroke="url(#paint0_linear_687_901)" stroke-opacity="0.8" stroke-width="3.95788"/>
</g>
<defs>
<linearGradient id="paint0_linear_687_901" x1="-0.518243" y1="-19.3827" x2="63.601" y2="92.2358" gradientUnits="userSpaceOnUse">
<stop stop-color="white" stop-opacity="0.81"/>
<stop offset="1" stop-color="white" stop-opacity="0"/>
</linearGradient>
</defs>
</svg>
