<svg width="77" height="76" viewBox="0 0 77 76" fill="none" xmlns="http://www.w3.org/2000/svg">
<path d="M66.437 19.7608L64.668 3.41715C64.3142 0.148409 59.5844 -0.746193 57.8899 2.14406L49.8269 15.8212H26.9788L18.9159 2.16126C17.2028 -0.728989 12.4916 0.148409 12.1378 3.41715L10.3688 19.7608C4.29833 23.7005 0.332031 30.2208 0.332031 37.5841V65.764C0.332031 70.9768 4.91282 75.209 10.555 75.209H66.2508C71.893 75.209 76.4738 70.9768 76.4738 65.764V37.5841C76.4738 30.2036 72.5075 23.7005 66.437 19.7608Z" fill="#8296FF"/>
<g opacity="0.7">
<path d="M64.4884 21.8501L62.9699 6.68721C62.6661 3.65464 58.6061 2.82468 57.1515 5.50611L50.2302 17.5212H26.5743L19.653 4.84825C18.1824 2.16682 14.1384 2.98082 13.8346 6.01339L12.3161 21.1762C7.10517 24.8313 4.24219 30.7483 4.24219 37.5796V65.2033C4.24219 70.0394 9.65412 73.9658 14.4974 73.9658H62.3071C67.1504 73.9658 72.4302 70.0394 72.4302 65.2033V39.0594C72.4302 32.2121 69.6993 25.5051 64.4884 21.8501Z" fill="#8296FF"/>
<path d="M62.5193 22.0473L62.6096 22.9495L63.352 23.4702C67.8976 26.6586 70.4513 32.6692 70.4513 39.0594V65.2033C70.4513 66.8722 69.5335 68.547 67.9266 69.8707C66.3198 71.1944 64.2253 71.9869 62.3071 71.9869H14.4974C12.5754 71.9869 10.4428 71.1915 8.79907 69.8603C7.15315 68.5272 6.22113 66.8535 6.22113 65.2033V37.5796C6.22113 31.3206 8.82665 26.041 13.4525 22.7964L14.1949 22.2757L14.2852 21.3734L15.8037 6.21059C15.9111 5.13845 17.3687 4.80103 17.9172 5.79857C17.9174 5.799 17.9176 5.79942 17.9179 5.79984L24.8375 18.4697L25.4002 19.5001H26.5743H50.2302H51.374L51.945 18.509L58.8663 6.4939L58.8789 6.47197L58.891 6.44972C59.4067 5.49894 60.8893 5.77121 61.0008 6.88441L62.5193 22.0473Z" stroke="url(#paint0_linear_0_1)" stroke-opacity="0.8" stroke-width="3.95788"/>
</g>
<defs>
<linearGradient id="paint0_linear_0_1" x1="-0.342462" y1="-25.7596" x2="72.4302" y2="90.4746" gradientUnits="userSpaceOnUse">
<stop stop-color="white" stop-opacity="0.81"/>
<stop offset="1" stop-color="white" stop-opacity="0"/>
</linearGradient>
</defs>
</svg>
