<svg width="77" height="76" viewBox="0 0 77 76" fill="none" xmlns="http://www.w3.org/2000/svg">
<path d="M66.2221 19.7607L64.4531 3.41713C64.0993 0.148411 59.3696 -0.746186 57.675 2.14405L49.6121 15.8211H26.764L18.7011 2.16125C16.9879 -0.728982 12.2768 0.148411 11.923 3.41713L10.154 19.7607C4.08348 23.7004 0.117188 30.2206 0.117188 37.5838V65.7636C0.117188 70.9764 4.69798 75.2085 10.3402 75.2085H66.0359C71.6781 75.2085 76.2589 70.9764 76.2589 65.7636V37.5838C76.2589 30.2034 72.2926 23.7004 66.2221 19.7607Z" fill="#81C9FB"/>
<g opacity="0.7">
<path d="M64.2736 24.2995L62.755 10.387C62.4513 7.60453 58.3913 6.84301 56.9367 9.30332L50.0154 20.3276H26.3595L19.4382 8.69971C17.9676 6.2394 13.9235 6.98628 13.6198 9.76877L12.1013 23.6813C6.89033 27.0349 4.02734 32.464 4.02734 38.732V64.0777C4.02734 68.5151 9.43928 72.1177 14.2826 72.1177H62.0923C66.9356 72.1177 72.2154 68.5151 72.2154 64.0777V40.0897C72.2154 33.8071 69.4845 27.6531 64.2736 24.2995Z" fill="#81C9FB"/>
<path d="M62.3063 24.5142L62.4087 25.4527L63.2026 25.9636C67.7344 28.8802 70.2365 34.3335 70.2365 40.0897V64.0777C70.2365 65.4751 69.3934 66.9611 67.7768 68.183C66.1734 69.395 64.0569 70.1387 62.0923 70.1387H14.2826C12.3147 70.1387 10.1599 69.3926 8.51908 68.1733C6.86096 66.9412 6.00628 65.4554 6.00628 64.0777V38.732C6.00628 33.1098 8.54973 28.3203 13.1723 25.3454L13.9661 24.8344L14.0685 23.896L15.5871 9.9835C15.6229 9.6556 15.8682 9.3215 16.4498 9.21441C17.0328 9.10705 17.5067 9.3267 17.7388 9.71384C17.7391 9.71423 17.7393 9.71462 17.7395 9.71502L24.659 21.3398L25.2344 22.3066H26.3595H50.0154H51.1096L51.6914 21.3798L58.6127 10.3556L58.6267 10.3332L58.6402 10.3105C58.861 9.93689 59.3238 9.71416 59.9141 9.82442C60.5034 9.9345 60.7521 10.275 60.7878 10.6018L62.3063 24.5142Z" stroke="url(#paint0_linear_687_896)" stroke-opacity="0.8" stroke-width="3.95788"/>
</g>
<defs>
<linearGradient id="paint0_linear_687_896" x1="-0.557308" y1="-19.3841" x2="63.5634" y2="92.2353" gradientUnits="userSpaceOnUse">
<stop stop-color="white" stop-opacity="0.81"/>
<stop offset="1" stop-color="white" stop-opacity="0"/>
</linearGradient>
</defs>
</svg>
