<svg width="77" height="76" viewBox="0 0 77 76" fill="none" xmlns="http://www.w3.org/2000/svg">
<path d="M66.5307 19.7608L64.7617 3.41715C64.4079 0.148409 59.6782 -0.746193 57.9836 2.14406L49.9207 15.8212H27.0726L19.0097 2.16126C17.2965 -0.728989 12.5854 0.148409 12.2316 3.41715L10.4626 19.7608C4.39208 23.7005 0.425781 30.2208 0.425781 37.5841V65.764C0.425781 70.9768 5.00658 75.209 10.6488 75.209H66.3445C71.9867 75.209 76.5675 70.9768 76.5675 65.764V37.5841C76.5675 30.2036 72.6012 23.7005 66.5307 19.7608Z" fill="#9E8DE0"/>
<g opacity="0.7">
<path d="M64.5822 24.2999L63.0637 10.3875C62.76 7.60502 58.6999 6.8435 57.2453 9.30379L50.324 20.328H26.6681L19.7468 8.70019C18.2762 6.23989 14.2321 6.98677 13.9284 9.76924L12.4099 23.6816C7.19892 27.0352 4.33594 32.4643 4.33594 38.7322V64.0778C4.33594 68.5151 9.74788 72.1177 14.5912 72.1177H62.4009C67.2442 72.1177 72.524 68.5151 72.524 64.0778V40.0899C72.524 33.8074 69.7932 27.6535 64.5822 24.2999Z" fill="#9E8DE0"/>
<path d="M62.615 24.5146L62.7174 25.4531L63.5112 25.964C68.0431 28.8805 70.5451 34.3338 70.5451 40.0899V64.0778C70.5451 65.4751 69.7021 66.9611 68.0854 68.183C66.4821 69.395 64.3655 70.1387 62.4009 70.1387H14.5912C12.6233 70.1387 10.4685 69.3927 8.82767 68.1733C7.16955 66.9412 6.31488 65.4554 6.31488 64.0778V38.7322C6.31488 33.1101 8.85832 28.3206 13.4808 25.3457L14.2747 24.8348L14.3771 23.8963L15.8957 9.98397C15.9315 9.65609 16.1768 9.32199 16.7584 9.2149C17.3415 9.10753 17.8154 9.32723 18.0475 9.71442C18.0477 9.71478 18.0479 9.71514 18.0481 9.7155L24.9676 21.3402L25.543 22.3069H26.6681H50.324H51.4182L52 21.3802L58.9213 10.356L58.9354 10.3337L58.9488 10.3109C59.1697 9.93738 59.6325 9.71464 60.2227 9.8249C60.8121 9.93498 61.0608 10.2755 61.0964 10.6022L63.0637 10.3875L61.0964 10.6022L62.615 24.5146Z" stroke="url(#paint0_linear_687_911)" stroke-opacity="0.8" stroke-width="3.95788"/>
</g>
<defs>
<linearGradient id="paint0_linear_687_911" x1="-0.248718" y1="-19.3834" x2="63.8712" y2="92.2356" gradientUnits="userSpaceOnUse">
<stop stop-color="white" stop-opacity="0.81"/>
<stop offset="1" stop-color="white" stop-opacity="0"/>
</linearGradient>
</defs>
</svg>
